<?xml version="1.0" encoding="UTF-8" standalone="no"?>
<svg
   xmlns:dc="http://purl.org/dc/elements/1.1/"
   xmlns:cc="http://creativecommons.org/ns#"
   xmlns:rdf="http://www.w3.org/1999/02/22-rdf-syntax-ns#"
   xmlns:svg="http://www.w3.org/2000/svg"
   xmlns="http://www.w3.org/2000/svg"
   xmlns:sodipodi="http://sodipodi.sourceforge.net/DTD/sodipodi-0.dtd"
   xmlns:inkscape="http://www.inkscape.org/namespaces/inkscape"
   width="19.028177mm"
   height="15.000118mm"
   viewBox="0 0 19.028177 15.000118"
   version="1.1"
   id="svg83"
   inkscape:version="1.0.1 (3bc2e813f5, 2020-09-07)"
   sodipodi:docname="art_play_off.svg">
  <defs
     id="defs77">
    <inkscape:path-effect
       effect="fillet_chamfer"
       id="path-effect199"
       is_visible="true"
       lpeversion="1"
       satellites_param="F,0,0,1,0,0.34395833,0,1 @ F,0,0,1,0,0.34395833,0,1 @ F,0,0,1,0,0.34395833,0,1 @ F,0,0,1,0,0.34395833,0,1 @ F,0,0,1,0,0.34395833,0,1 @ F,0,0,1,0,0.34395833,0,1 @ F,0,0,1,0,0.34395833,0,1"
       unit="px"
       method="auto"
       mode="F"
       radius="1.3"
       chamfer_steps="1"
       flexible="false"
       use_knot_distance="true"
       apply_no_radius="true"
       apply_with_radius="true"
       only_selected="false"
       hide_knots="false" />
    <inkscape:path-effect
       effect="fillet_chamfer"
       id="path-effect197"
       is_visible="true"
       lpeversion="1"
       satellites_param="F,0,0,1,0,0.5,0,1 @ F,0,0,1,0,0.5,0,1 @ F,0,0,1,0,0.5,0,1 @ F,0,0,1,0,0.5,0,1 @ F,0,0,1,0,0.5,0,1 @ F,0,0,1,0,0.5,0,1 @ F,0,0,1,0,0.5,0,1"
       unit="mm"
       method="auto"
       mode="F"
       radius="0.5"
       chamfer_steps="1"
       flexible="false"
       use_knot_distance="true"
       apply_no_radius="true"
       apply_with_radius="true"
       only_selected="false"
       hide_knots="false" />
  </defs>
  <sodipodi:namedview
     id="base"
     pagecolor="#ffffff"
     bordercolor="#666666"
     borderopacity="1.0"
     inkscape:pageopacity="0.0"
     inkscape:pageshadow="2"
     inkscape:zoom="5.6"
     inkscape:cx="57.582332"
     inkscape:cy="28.905849"
     inkscape:document-units="mm"
     inkscape:current-layer="layer1"
     inkscape:document-rotation="0"
     showgrid="false"
     inkscape:window-width="2292"
     inkscape:window-height="1228"
     inkscape:window-x="178"
     inkscape:window-y="481"
     inkscape:window-maximized="0"
     showborder="false"
     fit-margin-top="0"
     fit-margin-left="0"
     fit-margin-right="0"
     fit-margin-bottom="0" />
  <metadata
     id="metadata80">
    <rdf:RDF>
      <cc:Work
         rdf:about="">
        <dc:format>image/svg+xml</dc:format>
        <dc:type
           rdf:resource="http://purl.org/dc/dcmitype/StillImage" />
        <dc:title></dc:title>
      </cc:Work>
    </rdf:RDF>
  </metadata>
  <g
     inkscape:label="Layer 1"
     inkscape:groupmode="layer"
     id="layer1"
     transform="translate(-4.0854109,24.505083)">
    <path
       id="rect121"
       style="fill:#999999;stroke-width:0.484936"
       d="m 4.0854109,-24.005083 v 14.000118 a 0.5,0.5 45 0 0 0.5,0.4999999 h 10.5564001 3.443718 a 0.84881918,0.84881918 149.49963 0 0 0.742399,-0.4373129 l 3.672571,-6.625692 a 0.90201988,0.90201988 89.999161 0 0 -1.3e-5,-0.874619 l -3.672545,-6.625188 a 0.84884759,0.84884759 30.499527 0 0 -0.742412,-0.437306 H 16.141811 4.5854109 a 0.5,0.5 135 0 0 -0.5,0.5 z"
       inkscape:path-effect="#path-effect197"
       inkscape:original-d="m 4.0854109,-24.505083 v 15.0001179 h 11.5564001 3.443718 l 4.157369,-7.5003179 -4.157369,-7.4998 h -3.443718 z" />
    <path
       id="rect121-4"
       style="fill:#cccccc;stroke-width:0.456094"
       d="m 4.5856541,-23.661066 0,13.312084 a 0.34395833,0.34395833 45 0 0 0.3439583,0.343958 h 10.2649586 3.263872 a 0.588308,0.588308 149.68701 0 0 0.512673,-0.299738 l 3.602823,-6.400764 a 0.61105424,0.61105424 89.99916 0 0 -8e-6,-0.599471 l -3.602807,-6.400294 a 0.58832779,0.58832779 30.312146 0 0 -0.512681,-0.299733 H 15.882487 4.9296124 a 0.34395833,0.34395833 135 0 0 -0.3439583,0.343958 z"
       inkscape:path-effect="#path-effect199"
       inkscape:original-d="m 4.5856541,-24.005024 v 14 h 10.9528749 3.263872 l 3.940253,-7.00024 -3.940253,-6.99976 h -3.263872 z" />
    <path
       id="rect89"
       style="fill:#000000;stroke-width:0.167484"
       d="m 14.062185,-19.544145 -1.36064,5.078243 h 0.499711 l 1.360641,-5.078243 z m -5.6161946,0.538985 v 3.999756 h 1.333769 v -3.999756 z m 2.6665036,0 v 3.999756 h 1.33377 v -3.999756 z m 3.680396,0 -10e-4,3.999756 4.000273,-1.998845 z" />
  </g>
</svg>
