<?xml version="1.0" encoding="UTF-8" standalone="no"?>
<svg
   xmlns:dc="http://purl.org/dc/elements/1.1/"
   xmlns:cc="http://creativecommons.org/ns#"
   xmlns:rdf="http://www.w3.org/1999/02/22-rdf-syntax-ns#"
   xmlns:svg="http://www.w3.org/2000/svg"
   xmlns="http://www.w3.org/2000/svg"
   xmlns:sodipodi="http://sodipodi.sourceforge.net/DTD/sodipodi-0.dtd"
   xmlns:inkscape="http://www.inkscape.org/namespaces/inkscape"
   width="40.639999mm"
   height="128.5mm"
   viewBox="0 0 40.64 128.5"
   version="1.1"
   id="svg72"
   inkscape:version="1.0.1 (3bc2e813f5, 2020-09-07)"
   sodipodi:docname="cloc.svg">
  <defs
     id="defs66" />
  <sodipodi:namedview
     id="base"
     pagecolor="#ffffff"
     bordercolor="#666666"
     borderopacity="1.0"
     inkscape:pageopacity="0.0"
     inkscape:pageshadow="2"
     inkscape:zoom="2.8284271"
     inkscape:cx="113.40002"
     inkscape:cy="230.62614"
     inkscape:document-units="mm"
     inkscape:current-layer="layer1"
     inkscape:document-rotation="0"
     showgrid="true"
     inkscape:showpageshadow="false"
     borderlayer="true"
     inkscape:lockguides="false"
     inkscape:window-width="1918"
     inkscape:window-height="2054"
     inkscape:window-x="-10"
     inkscape:window-y="0"
     inkscape:window-maximized="0">
    <sodipodi:guide
       position="0,128.5"
       orientation="0,383.99999"
       id="guide76"
       inkscape:locked="false" />
    <sodipodi:guide
       position="101.6,128.5"
       orientation="485.66929,0"
       id="guide78"
       inkscape:locked="false" />
    <sodipodi:guide
       position="101.6,0"
       orientation="0,-383.99999"
       id="guide80"
       inkscape:locked="false" />
    <sodipodi:guide
       position="0,0"
       orientation="-485.66929,0"
       id="guide82"
       inkscape:locked="false" />
    <sodipodi:guide
       position="0,128.50001"
       orientation="0,153.6"
       id="guide783" />
    <sodipodi:guide
       position="40.640001,128.50001"
       orientation="485.66929,0"
       id="guide785" />
    <sodipodi:guide
       position="40.640001,0"
       orientation="0,-153.6"
       id="guide787" />
    <sodipodi:guide
       position="0,0"
       orientation="-485.66929,0"
       id="guide789" />
    <inkscape:grid
       type="xygrid"
       id="grid791"
       originx="20.320001"
       originy="64.250001"
       dotted="true" />
  </sodipodi:namedview>
  <metadata
     id="metadata69">
    <rdf:RDF>
      <cc:Work
         rdf:about="">
        <dc:format>image/svg+xml</dc:format>
        <dc:type
           rdf:resource="http://purl.org/dc/dcmitype/StillImage" />
        <dc:title />
      </cc:Work>
    </rdf:RDF>
  </metadata>
  <g
     inkscape:label="Layer 1"
     inkscape:groupmode="layer"
     id="layer1">
    <rect
       style="fill:#cccccc;fill-rule:evenodd;stroke-width:0.168322"
       id="rect84"
       width="40.639999"
       height="128.5"
       x="-1.503982e-14"
       y="-7.5495166e-15" />
    <rect
       style="fill:#333333;stroke-width:0.148289"
       id="rect45-9"
       width="10"
       height="14.953122"
       x="2.3825009"
       y="101.29166"
       ry="1.3229202" />
    <rect
       style="fill:#333333;stroke-width:0.148289"
       id="rect45-6"
       width="10"
       height="14.953122"
       x="15.028335"
       y="101.29166"
       ry="1.3229202" />
    <rect
       style="fill:#333333;stroke-width:0.148289"
       id="rect45-8"
       width="10"
       height="14.953122"
       x="27.599693"
       y="101.45426"
       ry="1.3229202" />
    <g
       aria-label="BPM"
       id="text51-5-2-2"
       style="font-style:normal;font-variant:normal;font-weight:normal;font-stretch:normal;font-size:2.82223px;line-height:1.25;font-family:sans-serif;-inkscape-font-specification:'sans-serif, Normal';font-variant-ligatures:normal;font-variant-caps:normal;font-variant-numeric:normal;font-variant-east-asian:normal;fill:#cccccc;fill-opacity:1;stroke:none;stroke-width:0.264583">
      <path
         d="m 31.415267,104.15681 q 0,0.15297 -0.05788,0.2701 -0.05788,0.11713 -0.155719,0.19293 -0.115755,0.091 -0.254937,0.12953 -0.137805,0.0386 -0.351401,0.0386 h -0.727606 v -2.05191 h 0.607716 q 0.224621,0 0.336243,0.0165 0.111621,0.0165 0.213596,0.0689 0.112999,0.0593 0.163987,0.15296 0.05099,0.0923 0.05099,0.22187 0,0.14607 -0.07441,0.24942 -0.07441,0.10198 -0.198438,0.16399 v 0.011 q 0.208085,0.0427 0.327974,0.18328 0.11989,0.13919 0.11989,0.35278 z m -0.458888,-0.92466 q 0,-0.0744 -0.0248,-0.12541 -0.02481,-0.051 -0.07993,-0.0827 -0.06477,-0.0372 -0.157097,-0.0455 -0.09233,-0.01 -0.228755,-0.01 h -0.325218 v 0.59256 h 0.352779 q 0.128158,0 0.20395,-0.0124 0.07579,-0.0138 0.14056,-0.0551 0.06477,-0.0413 0.09095,-0.1061 0.02756,-0.0662 0.02756,-0.15572 z m 0.175011,0.93569 q 0,-0.12403 -0.03721,-0.19706 -0.03721,-0.073 -0.135048,-0.12403 -0.06615,-0.0345 -0.161231,-0.0441 -0.09371,-0.011 -0.228755,-0.011 h -0.428571 v 0.76344 h 0.361047 q 0.179146,0 0.293523,-0.0179 0.114378,-0.0193 0.187414,-0.0689 0.07717,-0.0537 0.112999,-0.12265 0.03583,-0.0689 0.03583,-0.17776 z"
         style="font-style:normal;font-variant:normal;font-weight:normal;font-stretch:normal;font-size:2.82223px;font-family:sans-serif;-inkscape-font-specification:'sans-serif, Normal';font-variant-ligatures:normal;font-variant-caps:normal;font-variant-numeric:normal;font-variant-east-asian:normal;fill:#cccccc;stroke-width:0.264583"
         id="path925" />
      <path
         d="m 33.14471,103.35617 q 0,0.13643 -0.04823,0.25356 -0.04685,0.11576 -0.132292,0.20119 -0.106109,0.10611 -0.250803,0.15986 -0.144695,0.0524 -0.365182,0.0524 h -0.272852 v 0.76482 h -0.272852 v -2.05191 h 0.556729 q 0.184657,0 0.312815,0.0317 0.128158,0.0303 0.227377,0.0965 0.117134,0.0786 0.180524,0.19568 0.06477,0.11714 0.06477,0.29628 z m -0.283877,0.007 q 0,-0.10611 -0.03721,-0.18466 -0.03721,-0.0785 -0.113,-0.12815 -0.06615,-0.0427 -0.151584,-0.0606 -0.08406,-0.0193 -0.213597,-0.0193 h -0.270096 v 0.81993 h 0.230133 q 0.165365,0 0.268718,-0.0289 0.103353,-0.0303 0.168121,-0.0951 0.06477,-0.0661 0.09095,-0.13918 0.02756,-0.073 0.02756,-0.16399 z"
         style="font-style:normal;font-variant:normal;font-weight:normal;font-stretch:normal;font-size:2.82223px;font-family:sans-serif;-inkscape-font-specification:'sans-serif, Normal';font-variant-ligatures:normal;font-variant-caps:normal;font-variant-numeric:normal;font-variant-east-asian:normal;fill:#cccccc;stroke-width:0.264583"
         id="path927" />
      <path
         d="M 35.331662,104.78796 H 35.05881 v -1.76803 l -0.570509,1.20303 h -0.162609 l -0.566376,-1.20303 v 1.76803 h -0.254937 v -2.05191 h 0.372071 l 0.547083,1.1424 0.529168,-1.1424 h 0.378961 z"
         style="font-style:normal;font-variant:normal;font-weight:normal;font-stretch:normal;font-size:2.82223px;font-family:sans-serif;-inkscape-font-specification:'sans-serif, Normal';font-variant-ligatures:normal;font-variant-caps:normal;font-variant-numeric:normal;font-variant-east-asian:normal;fill:#cccccc;stroke-width:0.264583"
         id="path929" />
    </g>
    <g
       aria-label="RUN"
       id="text51-5-2-24"
       style="font-style:normal;font-variant:normal;font-weight:normal;font-stretch:normal;font-size:2.82223px;line-height:1.25;font-family:sans-serif;-inkscape-font-specification:'sans-serif, Normal';font-variant-ligatures:normal;font-variant-caps:normal;font-variant-numeric:normal;font-variant-east-asian:normal;fill:#cccccc;fill-opacity:1;stroke:none;stroke-width:0.264583"
       transform="translate(0,5e-5)">
      <path
         d="m 18.929346,104.78796 h -0.354157 l -0.686265,-0.8158 h -0.384473 v 0.8158 h -0.272853 v -2.05191 h 0.574644 q 0.186035,0 0.310059,0.0248 0.124024,0.0234 0.223243,0.0854 0.111621,0.0703 0.173633,0.17776 0.06339,0.10611 0.06339,0.2701 0,0.22186 -0.111621,0.37207 -0.111622,0.14883 -0.307304,0.22462 z m -0.638033,-1.47451 q 0,-0.0882 -0.03169,-0.15572 -0.03032,-0.0689 -0.101976,-0.11575 -0.05926,-0.04 -0.14056,-0.0551 -0.0813,-0.0165 -0.191548,-0.0165 h -0.321083 v 0.77446 h 0.275608 q 0.129536,0 0.225999,-0.0221 0.09646,-0.0234 0.163987,-0.0854 0.06201,-0.0579 0.09095,-0.13229 0.03032,-0.0758 0.03032,-0.19155 z"
         style="font-style:normal;font-variant:normal;font-weight:normal;font-stretch:normal;font-size:2.82223px;font-family:sans-serif;-inkscape-font-specification:'sans-serif, Normal';font-variant-ligatures:normal;font-variant-caps:normal;font-variant-numeric:normal;font-variant-east-asian:normal;fill:#cccccc;stroke-width:0.264583"
         id="path918" />
      <path
         d="m 20.738715,103.96389 q 0,0.22324 -0.04961,0.38998 -0.04823,0.16537 -0.159853,0.27561 -0.106109,0.10473 -0.248048,0.15296 -0.141938,0.0482 -0.33073,0.0482 -0.192926,0 -0.336242,-0.051 -0.143316,-0.051 -0.241157,-0.15021 -0.111622,-0.113 -0.161231,-0.27285 -0.04823,-0.15985 -0.04823,-0.39274 V 102.736 h 0.272853 v 1.24162 q 0,0.16674 0.02205,0.2632 0.02343,0.0965 0.07717,0.17501 0.06063,0.0896 0.163987,0.13505 0.104731,0.0455 0.250803,0.0455 0.147451,0 0.250804,-0.0441 0.103353,-0.0455 0.165365,-0.13643 0.05374,-0.0785 0.07579,-0.17914 0.02343,-0.10198 0.02343,-0.25218 v -1.24851 h 0.272852 z"
         style="font-style:normal;font-variant:normal;font-weight:normal;font-stretch:normal;font-size:2.82223px;font-family:sans-serif;-inkscape-font-specification:'sans-serif, Normal';font-variant-ligatures:normal;font-variant-caps:normal;font-variant-numeric:normal;font-variant-east-asian:normal;fill:#cccccc;stroke-width:0.264583"
         id="path920" />
      <path
         d="m 22.825071,104.78796 h -0.33762 l -0.972898,-1.83556 v 1.83556 h -0.254938 v -2.05191 h 0.423059 l 0.887459,1.6757 v -1.6757 h 0.254938 z"
         style="font-style:normal;font-variant:normal;font-weight:normal;font-stretch:normal;font-size:2.82223px;font-family:sans-serif;-inkscape-font-specification:'sans-serif, Normal';font-variant-ligatures:normal;font-variant-caps:normal;font-variant-numeric:normal;font-variant-east-asian:normal;fill:#cccccc;stroke-width:0.264583"
         id="path922" />
    </g>
    <g
       aria-label="RESET"
       id="text51-5-2-3"
       style="font-style:normal;font-variant:normal;font-weight:normal;font-stretch:normal;font-size:2.82223px;line-height:1.25;font-family:sans-serif;-inkscape-font-specification:'sans-serif, Normal';font-variant-ligatures:normal;font-variant-caps:normal;font-variant-numeric:normal;font-variant-east-asian:normal;fill:#cccccc;fill-opacity:1;stroke:none;stroke-width:0.264583"
       transform="translate(0,-0.05727)">
      <path
         d="M 4.6181485,104.88245 H 4.2639917 l -0.6862649,-0.8158 H 3.1932531 v 0.8158 H 2.9204007 v -2.05191 h 0.5746436 q 0.1860356,0 0.3100594,0.0248 0.1240238,0.0234 0.2232428,0.0854 0.1116214,0.0703 0.1736333,0.17776 0.06339,0.10611 0.06339,0.2701 0,0.22186 -0.1116214,0.37207 -0.1116215,0.14883 -0.3073034,0.22462 z m -0.6380334,-1.47451 q 0,-0.0882 -0.031695,-0.15572 -0.030317,-0.0689 -0.1019751,-0.11575 -0.059256,-0.04 -0.1405603,-0.0551 -0.081304,-0.0165 -0.1915479,-0.0165 H 3.1932531 v 0.77446 h 0.2756084 q 0.1295359,0 0.2259989,-0.022 0.096463,-0.0234 0.163987,-0.0854 0.062012,-0.0579 0.090951,-0.13229 0.030317,-0.0758 0.030317,-0.19155 z"
         style="font-style:normal;font-variant:normal;font-weight:normal;font-stretch:normal;font-size:2.82223px;font-family:sans-serif;-inkscape-font-specification:'sans-serif, Normal';font-variant-ligatures:normal;font-variant-caps:normal;font-variant-numeric:normal;font-variant-east-asian:normal;fill:#cccccc;stroke-width:0.264583"
         id="path907" />
      <path
         d="M 6.2345919,104.88245 H 4.8827326 v -2.05191 h 1.3518593 v 0.24254 h -1.079007 v 0.56224 h 1.079007 v 0.24253 h -1.079007 v 0.76206 h 1.079007 z"
         style="font-style:normal;font-variant:normal;font-weight:normal;font-stretch:normal;font-size:2.82223px;font-family:sans-serif;-inkscape-font-specification:'sans-serif, Normal';font-variant-ligatures:normal;font-variant-caps:normal;font-variant-numeric:normal;font-variant-east-asian:normal;fill:#cccccc;stroke-width:0.264583"
         id="path909" />
      <path
         d="m 8.1583385,104.29678 q 0,0.11989 -0.0565,0.23702 -0.055122,0.11714 -0.1557188,0.19844 -0.1102434,0.0882 -0.2576939,0.1378 -0.1460724,0.0496 -0.3527787,0.0496 -0.2218648,0 -0.3996322,-0.0413 -0.1763894,-0.0413 -0.359669,-0.12264 v -0.34176 h 0.019293 q 0.1557188,0.12954 0.359669,0.19982 0.2039502,0.0703 0.3830957,0.0703 0.2535597,0 0.39412,-0.0951 0.1419383,-0.0951 0.1419383,-0.25356 0,-0.13642 -0.067524,-0.20119 -0.066146,-0.0648 -0.2025722,-0.1006 -0.1033532,-0.0276 -0.2246209,-0.0455 -0.1198896,-0.0179 -0.2549377,-0.0455 -0.2728524,-0.0579 -0.4051444,-0.19706 -0.130914,-0.14056 -0.130914,-0.36518 0,-0.25769 0.2177306,-0.42168 0.2177307,-0.16537 0.5525949,-0.16537 0.2163526,0 0.3968761,0.0414 0.1805235,0.0413 0.3197058,0.10197 v 0.32246 h -0.019293 q -0.1171336,-0.0992 -0.3086814,-0.16398 -0.1901698,-0.0661 -0.3899859,-0.0661 -0.2191087,0 -0.3527788,0.0909 -0.132292,0.091 -0.132292,0.23427 0,0.12816 0.066146,0.20119 0.066146,0.073 0.2328891,0.11162 0.088195,0.0193 0.2508036,0.0469 0.162609,0.0276 0.2756084,0.0565 0.228755,0.0606 0.3445106,0.18328 0.1157555,0.12264 0.1157555,0.34313 z"
         style="font-style:normal;font-variant:normal;font-weight:normal;font-stretch:normal;font-size:2.82223px;font-family:sans-serif;-inkscape-font-specification:'sans-serif, Normal';font-variant-ligatures:normal;font-variant-caps:normal;font-variant-numeric:normal;font-variant-east-asian:normal;fill:#cccccc;stroke-width:0.264583"
         id="path911" />
      <path
         d="M 9.9484151,104.88245 H 8.5965558 v -2.05191 h 1.3518593 v 0.24254 h -1.079007 v 0.56224 h 1.079007 v 0.24253 h -1.079007 v 0.76206 h 1.079007 z"
         style="font-style:normal;font-variant:normal;font-weight:normal;font-stretch:normal;font-size:2.82223px;font-family:sans-serif;-inkscape-font-specification:'sans-serif, Normal';font-variant-ligatures:normal;font-variant-caps:normal;font-variant-numeric:normal;font-variant-east-asian:normal;fill:#cccccc;stroke-width:0.264583"
         id="path913" />
      <path
         d="m 11.844601,103.07308 h -0.733118 v 1.80937 H 10.83863 v -1.80937 h -0.733118 v -0.24254 h 1.739089 z"
         style="font-style:normal;font-variant:normal;font-weight:normal;font-stretch:normal;font-size:2.82223px;font-family:sans-serif;-inkscape-font-specification:'sans-serif, Normal';font-variant-ligatures:normal;font-variant-caps:normal;font-variant-numeric:normal;font-variant-east-asian:normal;fill:#cccccc;stroke-width:0.264583"
         id="path915" />
    </g>
    <g
       aria-label="BPM"
       id="text51-5-2-7"
       style="font-style:normal;font-variant:normal;font-weight:normal;font-stretch:normal;font-size:2.82223px;line-height:1.25;font-family:sans-serif;-inkscape-font-specification:'sans-serif, Normal';font-variant-ligatures:normal;font-variant-caps:normal;font-variant-numeric:normal;font-variant-east-asian:normal;fill:#333333;fill-opacity:1;stroke:none;stroke-width:0.264583"
       transform="translate(0,5.213912)">
      <path
         d="m 4.6696269,70.206854 q 0,0.152963 -0.057878,0.270096 -0.057878,0.117134 -0.1557187,0.192926 -0.1157556,0.09095 -0.2549378,0.129536 -0.1378042,0.03858 -0.3514007,0.03858 h -0.727606 v -2.051904 h 0.6077165 q 0.2246209,0 0.3362423,0.01654 0.1116214,0.01654 0.2135965,0.0689 0.1129994,0.05926 0.163987,0.152963 0.050988,0.09233 0.050988,0.221865 0,0.146072 -0.074414,0.249425 -0.074414,0.101976 -0.1984381,0.163987 v 0.01102 q 0.2080844,0.04272 0.327974,0.183279 0.1198897,0.139183 0.1198897,0.352779 z m -0.458888,-0.924666 q 0,-0.07441 -0.024805,-0.125402 -0.024805,-0.05099 -0.079926,-0.08268 -0.064768,-0.03721 -0.1570968,-0.04548 -0.092329,-0.0096 -0.228755,-0.0096 H 3.394938 v 0.592558 h 0.3527788 q 0.1281579,0 0.2039502,-0.0124 0.075792,-0.01378 0.1405603,-0.05512 0.064768,-0.04134 0.090951,-0.106109 0.027561,-0.06615 0.027561,-0.155719 z m 0.1750113,0.935691 q 0,-0.124024 -0.037207,-0.19706 -0.037207,-0.07304 -0.1350481,-0.124024 -0.066146,-0.03445 -0.1612309,-0.0441 -0.093707,-0.01102 -0.228755,-0.01102 H 3.394938 v 0.763435 h 0.361047 q 0.1791455,0 0.293523,-0.01791 0.1143775,-0.01929 0.1874137,-0.0689 0.07717,-0.05374 0.1129994,-0.122646 0.035829,-0.0689 0.035829,-0.177767 z"
         style="font-style:normal;font-variant:normal;font-weight:normal;font-stretch:normal;font-size:2.82223px;font-family:sans-serif;-inkscape-font-specification:'sans-serif, Normal';font-variant-ligatures:normal;font-variant-caps:normal;font-variant-numeric:normal;font-variant-east-asian:normal;fill:#333333;stroke-width:0.264583"
         id="path1124" />
      <path
         d="m 6.3990697,69.406212 q 0,0.136426 -0.048231,0.253559 -0.046853,0.115756 -0.132292,0.201195 -0.1061093,0.106109 -0.2508037,0.159853 -0.1446944,0.05236 -0.3651811,0.05236 H 5.3297091 v 0.764813 H 5.0568567 v -2.051904 h 0.556729 q 0.1846577,0 0.3128156,0.03169 0.1281579,0.03032 0.2273769,0.09646 0.1171336,0.07855 0.1805235,0.195682 0.064768,0.117133 0.064768,0.296279 z m -0.2838767,0.0069 q 0,-0.106109 -0.037207,-0.184658 -0.037207,-0.07855 -0.1129995,-0.128158 -0.066146,-0.04272 -0.1515846,-0.06063 -0.084061,-0.01929 -0.2135965,-0.01929 H 5.3297091 v 0.819935 h 0.230133 q 0.165365,0 0.2687182,-0.02894 0.1033531,-0.03032 0.1681211,-0.09508 0.064768,-0.06615 0.090951,-0.139182 0.027561,-0.07304 0.027561,-0.163987 z"
         style="font-style:normal;font-variant:normal;font-weight:normal;font-stretch:normal;font-size:2.82223px;font-family:sans-serif;-inkscape-font-specification:'sans-serif, Normal';font-variant-ligatures:normal;font-variant-caps:normal;font-variant-numeric:normal;font-variant-east-asian:normal;fill:#333333;stroke-width:0.264583"
         id="path1126" />
      <path
         d="M 8.5860224,70.837997 H 8.31317 V 69.069969 L 7.7426606,70.273 H 7.5800517 L 7.0136764,69.069969 v 1.768028 H 6.7587386 V 68.786093 H 7.13081 l 0.5470827,1.142397 0.5291681,-1.142397 h 0.3789616 z"
         style="font-style:normal;font-variant:normal;font-weight:normal;font-stretch:normal;font-size:2.82223px;font-family:sans-serif;-inkscape-font-specification:'sans-serif, Normal';font-variant-ligatures:normal;font-variant-caps:normal;font-variant-numeric:normal;font-variant-east-asian:normal;fill:#333333;stroke-width:0.264583"
         id="path1128" />
    </g>
  </g>
  <g
     inkscape:groupmode="layer"
     id="layer3"
     inkscape:label="Original"
     style="display:inline;opacity:1">
    <g
       aria-label="Cloc"
       id="text29-7"
       style="font-style:normal;font-variant:normal;font-weight:normal;font-stretch:normal;font-size:11.2889px;line-height:1.25;font-family:'American Typewriter';-inkscape-font-specification:'American Typewriter, Normal';font-variant-ligatures:normal;font-variant-caps:normal;font-variant-numeric:normal;font-variant-east-asian:normal;display:inline;opacity:1;fill:#333333;fill-opacity:1;stroke:none;stroke-width:0.264583">
      <path
         d="m 12.829833,2.249732 q 1.253068,0 2.043291,0.9595565 l -0.01129,-0.1241779 q 0,-0.056445 0,-0.1241779 -0.01129,-0.067733 -0.01129,-0.079022 -0.02258,-0.2483558 -0.02258,-0.225778 0,-0.3838226 0.361244,-0.3838226 0.383823,0 0.383823,0.4741338 0,0.090311 -0.04516,0.5418672 -0.05644,0.564445 -0.05644,0.7789341 0,0.3048004 0.03387,0.6208896 l 0.04516,0.4289782 v 0.112889 q 0,0.5080005 -0.4064,0.5080005 -0.440267,0 -0.428978,-0.4854227 l 0.01129,-0.4064004 Q 14.748946,4.0333782 14.218368,3.5253777 13.68779,3.0173772 12.829833,3.0173772 q -1.117601,0 -1.749779,0.8579564 -0.632179,0.8579565 -0.632179,2.3706691 0,1.5465794 0.643468,2.4158247 0.654756,0.8579564 1.817513,0.8579564 0.632178,0 1.12889,-0.3048003 0.508,-0.3048003 0.7112,-0.8015119 0.135467,-0.3273781 0.135467,-0.8805342 0,-0.5192895 0.428978,-0.5192895 0.462845,0 0.462845,0.5192895 0,1.2079123 -0.835378,1.9755575 -0.835379,0.7676451 -2.15618,0.7676451 -1.524002,0 -2.438403,-1.0724454 -0.9031118,-1.0724455 -0.9031118,-2.8560918 0,-1.8400907 0.9256898,-2.9689808 0.936979,-1.12889 2.46098,-1.12889 z"
         style="font-style:normal;font-variant:normal;font-weight:normal;font-stretch:normal;font-size:11.2889px;font-family:'American Typewriter';-inkscape-font-specification:'American Typewriter, Normal';font-variant-ligatures:normal;font-variant-caps:normal;font-variant-numeric:normal;font-variant-east-asian:normal;stroke-width:0.264583;fill:#333333"
         id="path898" />
      <path
         d="m 18.40654,5.309024 0.01129,3.510848 q 0.01129,0.5757339 0.3048,0.5757339 0.06773,0 0.282223,-0.056444 0.135467,-0.022578 0.180622,-0.022578 0.372534,0 0.372534,0.3838226 0,0.3725335 -0.462845,0.3725335 -0.180622,0 -0.575734,-0.04516 -0.395111,-0.045155 -0.609601,-0.045155 -0.180622,0 -0.541867,0.045155 -0.361245,0.04516 -0.530578,0.04516 h -0.05645 q -0.474133,0 -0.474133,-0.4064002 0,-0.3499559 0.383822,-0.3499559 0.02258,0 0.07902,0 0.06773,0.011289 0.1016,0.011289 0.282222,0.045156 0.327378,0.045156 0.2032,0 0.248356,-0.1693335 0.05644,-0.1806224 0.06773,-0.9144009 l 0.01129,-0.790223 0.03387,-1.7497796 -0.01129,-2.0094243 q -0.01129,-0.338667 -0.03387,-0.451556 -0.07902,-0.2596447 -0.316089,-0.2596447 -0.03387,0 -0.293512,0.045156 -0.124178,0.022578 -0.2032,0.022578 -0.383823,0 -0.383823,-0.3612448 0,-0.3725337 0.451557,-0.3725337 0.124177,0 0.214489,0.011289 l 0.270933,0.033867 q 0.180623,0.022578 0.304801,0.022578 0.112889,0 0.338667,-0.033867 0.225778,-0.045156 0.338667,-0.045156 0.259644,0 0.259644,0.3273781 0,0.112889 -0.01129,0.1693335 -0.07902,0.8692453 -0.07902,2.4609803 z"
         style="font-style:normal;font-variant:normal;font-weight:normal;font-stretch:normal;font-size:11.2889px;font-family:'American Typewriter';-inkscape-font-specification:'American Typewriter, Normal';font-variant-ligatures:normal;font-variant-caps:normal;font-variant-numeric:normal;font-variant-east-asian:normal;stroke-width:0.264583;fill:#333333"
         id="path900" />
      <path
         d="m 22.730167,10.219696 q -1.185335,0 -1.896535,-0.8128012 -0.711201,-0.8240897 -0.711201,-2.2013355 0,-1.3772459 0.711201,-2.1900467 0.722489,-0.8240897 1.930402,-0.8240897 1.23049,0 1.941691,0.8015119 0.7112,0.8015119 0.7112,2.1787578 0,1.3772458 -0.733778,2.2126244 -0.733779,0.835379 -1.95298,0.835379 z m 0.05645,-5.2832057 q -0.790223,0 -1.24178,0.5531561 -0.451556,0.5531561 -0.496711,1.5691571 0,0 0,0.1467558 0,1.0611566 0.440267,1.6707572 0.451556,0.5983117 1.253068,0.5983117 0.82409,0 1.286935,-0.5983117 0.474133,-0.6096006 0.474133,-1.6820461 0,-2.2577801 -1.715912,-2.2577801 z"
         style="font-style:normal;font-variant:normal;font-weight:normal;font-stretch:normal;font-size:11.2889px;font-family:'American Typewriter';-inkscape-font-specification:'American Typewriter, Normal';font-variant-ligatures:normal;font-variant-caps:normal;font-variant-numeric:normal;font-variant-east-asian:normal;stroke-width:0.264583;fill:#333333"
         id="path902" />
      <path
         d="m 29.582524,6.3024472 q 0,-0.451556 0.564445,-0.5192894 -0.05644,-0.3951115 -0.383822,-0.6208895 -0.316089,-0.225778 -0.82409,-0.225778 -0.778934,0 -1.253068,0.6208895 -0.474134,0.6208895 -0.474134,1.6481795 0,1.0611566 0.440267,1.6707572 0.451556,0.5983117 1.241779,0.5983117 0.496712,0 0.857957,-0.2822225 0.372534,-0.2822225 0.508,-0.7789341 0.112889,-0.3951115 0.135467,-0.451556 0.124178,-0.225778 0.361245,-0.225778 0.191911,0 0.316089,0.1241779 0.124178,0.1241779 0.124178,0.3160892 0,0.2822225 -0.180622,0.677334 -0.180623,0.3951115 -0.428978,0.6547562 -0.666046,0.7112011 -1.727202,0.7112011 -1.151468,0 -1.862669,-0.8128012 -0.699912,-0.8128008 -0.699912,-2.1336021 0,-1.3998237 0.72249,-2.2352023 0.733779,-0.8466675 1.941691,-0.8466675 0.903112,0 1.501424,0.4967116 0.598311,0.4854227 0.598311,1.241779 0,0.4176893 -0.237067,0.6886229 -0.225778,0.2709336 -0.587022,0.2709336 -0.282223,0 -0.474134,-0.1693335 Q 29.582524,6.550803 29.582524,6.3024472 Z"
         style="font-style:normal;font-variant:normal;font-weight:normal;font-stretch:normal;font-size:11.2889px;font-family:'American Typewriter';-inkscape-font-specification:'American Typewriter, Normal';font-variant-ligatures:normal;font-variant-caps:normal;font-variant-numeric:normal;font-variant-east-asian:normal;stroke-width:0.264583;fill:#333333"
         id="path904" />
    </g>
    <g
       aria-label="MIDI IN"
       id="text77"
       style="font-style:normal;font-variant:normal;font-weight:normal;font-stretch:normal;font-size:2.82222px;line-height:1.25;font-family:sans-serif;-inkscape-font-specification:'sans-serif, Normal';font-variant-ligatures:normal;font-variant-caps:normal;font-variant-numeric:normal;font-variant-east-asian:normal;fill:#333333;fill-opacity:1;stroke:none;stroke-width:0.264583"
       transform="translate(-2.9214409,1.0279823)">
      <path
         d="M 7.8708039,19.270834 H 7.5979524 V 17.502811 L 7.0274445,18.705838 H 6.864836 L 6.2984623,17.502811 v 1.768023 h -0.254937 v -2.051899 h 0.3720703 l 0.5470812,1.142394 0.5291666,-1.142394 h 0.3789605 z"
         style="font-style:normal;font-variant:normal;font-weight:normal;font-stretch:normal;font-size:2.82222px;font-family:sans-serif;-inkscape-font-specification:'sans-serif, Normal';font-variant-ligatures:normal;font-variant-caps:normal;font-variant-numeric:normal;font-variant-east-asian:normal;fill:#333333;stroke-width:0.264583"
         id="path79" />
      <path
         d="M 9.1454894,19.270834 H 8.3352029 V 19.061372 H 8.6039203 V 17.428397 H 8.3352029 v -0.209462 h 0.8102865 v 0.209462 H 8.8767719 v 1.632975 h 0.2687175 z"
         style="font-style:normal;font-variant:normal;font-weight:normal;font-stretch:normal;font-size:2.82222px;font-family:sans-serif;-inkscape-font-specification:'sans-serif, Normal';font-variant-ligatures:normal;font-variant-caps:normal;font-variant-numeric:normal;font-variant-east-asian:normal;fill:#333333;stroke-width:0.264583"
         id="path81" />
      <path
         d="m 11.34346,18.246952 q 0,0.279741 -0.122645,0.507118 -0.121268,0.227376 -0.323839,0.352777 -0.14056,0.08682 -0.314193,0.125402 -0.172255,0.03859 -0.454753,0.03859 H 9.6098881 V 17.21894 h 0.5126299 q 0.300413,0 0.476802,0.0441 0.177766,0.04272 0.300412,0.118512 0.209462,0.130913 0.326595,0.348643 0.117133,0.21773 0.117133,0.516765 z m -0.285254,-0.0041 q 0,-0.241156 -0.08406,-0.406521 -0.08406,-0.165364 -0.250803,-0.260449 -0.121267,-0.0689 -0.257693,-0.09509 -0.136426,-0.02756 -0.326595,-0.02756 H 9.8827397 v 1.583365 h 0.2563153 q 0.197059,0 0.343131,-0.02894 0.14745,-0.02894 0.270096,-0.107487 0.152962,-0.09784 0.228754,-0.257693 0.07717,-0.159853 0.07717,-0.399632 z"
         style="font-style:normal;font-variant:normal;font-weight:normal;font-stretch:normal;font-size:2.82222px;font-family:sans-serif;-inkscape-font-specification:'sans-serif, Normal';font-variant-ligatures:normal;font-variant-caps:normal;font-variant-numeric:normal;font-variant-east-asian:normal;fill:#333333;stroke-width:0.264583"
         id="path83" />
      <path
         d="m 12.507903,19.270834 h -0.810287 v -0.209462 h 0.268718 v -1.632975 h -0.268718 v -0.209462 h 0.810287 v 0.209462 h -0.268718 v 1.632975 h 0.268718 z"
         style="font-style:normal;font-variant:normal;font-weight:normal;font-stretch:normal;font-size:2.82222px;font-family:sans-serif;-inkscape-font-specification:'sans-serif, Normal';font-variant-ligatures:normal;font-variant-caps:normal;font-variant-numeric:normal;font-variant-east-asian:normal;fill:#333333;stroke-width:0.264583"
         id="path85" />
      <path
         d="m 14.687959,19.270834 h -0.810286 v -0.209462 h 0.268717 v -1.632975 h -0.268717 v -0.209462 h 0.810286 v 0.209462 h -0.268717 v 1.632975 h 0.268717 z"
         style="font-style:normal;font-variant:normal;font-weight:normal;font-stretch:normal;font-size:2.82222px;font-family:sans-serif;-inkscape-font-specification:'sans-serif, Normal';font-variant-ligatures:normal;font-variant-caps:normal;font-variant-numeric:normal;font-variant-east-asian:normal;fill:#333333;stroke-width:0.264583"
         id="path87" />
      <path
         d="M 16.717809,19.270834 H 16.38019 l -0.972895,-1.835547 v 1.835547 h -0.254937 v -2.051899 h 0.423057 l 0.887457,1.675695 v -1.675695 h 0.254937 z"
         style="font-style:normal;font-variant:normal;font-weight:normal;font-stretch:normal;font-size:2.82222px;font-family:sans-serif;-inkscape-font-specification:'sans-serif, Normal';font-variant-ligatures:normal;font-variant-caps:normal;font-variant-numeric:normal;font-variant-east-asian:normal;fill:#333333;stroke-width:0.264583"
         id="path89" />
    </g>
  </g>
  <g
     inkscape:groupmode="layer"
     id="layer5"
     inkscape:label="Ports" />
  <g
     inkscape:groupmode="layer"
     id="layer4"
     inkscape:label="To Render"
     style="display:inline">
    <g
       aria-label="Ynys"
       id="text25"
       style="font-style:normal;font-variant:normal;font-weight:normal;font-stretch:normal;font-size:7.05556px;line-height:1.25;font-family:'American Typewriter';-inkscape-font-specification:'American Typewriter, Normal';font-variant-ligatures:normal;font-variant-caps:normal;font-variant-numeric:normal;font-variant-east-asian:normal;display:inline;opacity:1;fill:#333333;fill-opacity:1;stroke:none;stroke-width:0.264583"
       transform="translate(-30.47996,-0.19690567)">
      <path
         d="m 44.672265,124.40857 q 0,-0.0282 0,-0.13406 -0.0071,-0.11289 -0.0071,-0.1905 l -1.368779,-2.16606 q -0.134055,-0.21166 -0.169333,-0.24694 -0.105833,-0.10584 -0.261056,-0.10584 -0.08467,0 -0.127,0.007 -0.02117,0 -0.0635,0 -0.04939,0.007 -0.07056,0.007 -0.324556,0 -0.324556,-0.24695 0,-0.254 0.282222,-0.254 0.112889,0 0.282223,0.0282 0.338666,0.0564 0.635,0.0564 0.218722,0 0.656167,-0.0635 0.148167,-0.0212 0.254,-0.0212 0.289278,0 0.289278,0.24695 0,0.23988 -0.345722,0.23988 l -0.07056,-0.007 H 44.0866 l -0.141111,-0.007 q -0.08467,-0.007 -0.08467,0.0564 0,0.0282 0.0071,0.0423 0.0071,0.007 0.03528,0.0564 l 1.0795,1.83444 1.093612,-1.83444 q 0.03528,-0.0564 0.03528,-0.11289 0,-0.0635 -0.09172,-0.0635 h -0.01411 l -0.127001,0.007 -0.183444,0.0212 q -0.119945,0.0141 -0.183445,0.0141 -0.289278,0 -0.289278,-0.24694 0,-0.24695 0.282223,-0.24695 0.105833,0 0.254,0.0212 0.395111,0.0564 0.684389,0.0564 0.303389,0 0.670278,-0.0564 0.141112,-0.0212 0.239889,-0.0212 0.268112,0 0.268112,0.24695 0,0.22577 -0.261056,0.22577 -0.105833,0 -0.162278,-0.0141 -0.112889,-0.0141 -0.155222,-0.0141 -0.183445,0 -0.296334,0.16933 l -0.105833,0.16228 -1.389945,2.18017 v 0.29633 q 0,0.71967 0.05644,0.89606 0.0635,0.17639 0.303389,0.17639 0.05645,0 0.169334,-0.0141 0.119944,-0.0212 0.176389,-0.0212 0.218722,0 0.218722,0.22578 0,0.254 -0.3175,0.254 -0.0071,0 -0.04233,0 -0.02822,-0.007 -0.04939,-0.007 l -0.388055,-0.0494 q -0.218723,-0.0282 -0.43039,-0.0282 -0.225777,0 -0.430389,0.0282 l -0.359833,0.0494 q -0.01411,0 -0.04233,0.007 -0.03528,0 -0.04939,0 -0.3175,0 -0.3175,-0.24694 0,-0.23284 0.225778,-0.23284 0.05644,0 0.162278,0.0212 0.112889,0.0141 0.169334,0.0141 0.296333,0 0.359833,-0.37395 0.0071,-0.0635 0.0071,-0.62088 z"
         style="font-style:normal;font-variant:normal;font-weight:normal;font-stretch:normal;font-size:7.05556px;font-family:'American Typewriter';-inkscape-font-specification:'American Typewriter, Normal';font-variant-ligatures:normal;font-variant-caps:normal;font-variant-numeric:normal;font-variant-east-asian:normal;fill:#333333;stroke-width:0.264583"
         id="path125" />
      <path
         d="m 48.870314,122.50356 v 0.19756 q 0.423334,-0.53622 1.12889,-0.53622 0.381,0 0.719667,0.19755 0.338667,0.1905 0.458611,0.47978 0.09878,0.23989 0.09878,0.62795 v 1.34055 q 0,0.30339 0.0071,0.35984 0.03528,0.23989 0.1905,0.23989 0.0635,0 0.162278,-0.0141 0.105833,-0.0212 0.148166,-0.0212 0.09172,0 0.155223,0.0635 0.07055,0.0635 0.07055,0.15522 0,0.10583 -0.08467,0.17639 -0.08467,0.0705 -0.204612,0.0705 -0.09878,0 -0.324555,-0.0282 -0.225778,-0.0282 -0.423334,-0.0282 -0.183445,0 -0.303389,0.0141 -0.352778,0.0423 -0.373945,0.0423 -0.282222,0 -0.282222,-0.24694 0,-0.21872 0.239889,-0.21872 0.05644,0 0.127,0.0141 0.134056,0.0282 0.169333,0.0282 0.169334,0 0.183445,-0.38806 l 0.01411,-0.35983 0.0071,-0.43039 v -0.53622 q 0,-0.37395 -0.03528,-0.51506 -0.0635,-0.26811 -0.275167,-0.41627 -0.232834,-0.16228 -0.529167,-0.16228 -0.564445,0 -0.81139,0.40216 -0.169333,0.27517 -0.169333,0.93839 v 0.93839 q 0,0.31045 0.04233,0.42334 0.04233,0.11289 0.155223,0.11289 0.05644,0 0.155222,-0.0282 0.09878,-0.0282 0.162278,-0.0282 0.218722,0 0.218722,0.23989 0,0.23283 -0.282222,0.23283 -0.05645,0 -0.366889,-0.0423 -0.155223,-0.0212 -0.345723,-0.0212 -0.148166,0 -0.395111,0.0282 -0.310445,0.0353 -0.352778,0.0353 -0.296334,0 -0.296334,-0.23988 0,-0.22578 0.225778,-0.22578 0.03528,0 0.127,0.0212 0.09878,0.0212 0.190501,0.0212 0.211666,0 0.218722,-0.40922 l 0.01411,-0.78317 v -0.85372 l -0.01411,-0.24695 q -0.01411,-0.23989 -0.0635,-0.32455 -0.04233,-0.0917 -0.155222,-0.0917 -0.04939,0 -0.148167,0.0212 -0.09172,0.0141 -0.141111,0.0141 -0.254001,0 -0.254001,-0.22577 0,-0.23284 0.317501,-0.23284 0.04233,0 0.07055,0.007 l 0.261056,0.0282 q 0.112889,0 0.197556,-0.0141 0.183444,-0.0141 0.1905,-0.0141 0.204611,0 0.204611,0.21166 z"
         style="font-style:normal;font-variant:normal;font-weight:normal;font-stretch:normal;font-size:7.05556px;font-family:'American Typewriter';-inkscape-font-specification:'American Typewriter, Normal';font-variant-ligatures:normal;font-variant-caps:normal;font-variant-numeric:normal;font-variant-east-asian:normal;fill:#333333;stroke-width:0.264583"
         id="path127" />
      <path
         d="m 53.244742,122.96218 0.81139,2.38478 0.860778,-2.34951 q 0.03528,-0.0988 0.03528,-0.15522 0,-0.11994 -0.162278,-0.11994 -0.08467,0 -0.134056,0.0141 -0.112889,0.0141 -0.148166,0.0141 -0.232834,0 -0.232834,-0.22578 0,-0.23989 0.303389,-0.23989 0.04233,0 0.141111,0.0141 l 0.254001,0.0353 q 0.09878,0.0141 0.211666,0.0141 0.119945,0 0.352778,-0.0282 0.232834,-0.0282 0.352778,-0.0282 0.30339,0 0.30339,0.23283 0,0.22578 -0.232834,0.22578 -0.07056,0 -0.105833,-0.0141 -0.09172,-0.0212 -0.127,-0.0212 -0.134056,0 -0.275167,0.35983 l -0.959556,2.3989 q -0.317501,0.79727 -0.599723,1.15711 -0.479778,0.61383 -1.199445,0.61383 -0.430389,0 -0.726723,-0.21872 -0.289278,-0.21872 -0.289278,-0.52917 0,-0.21872 0.127,-0.35983 0.127,-0.13406 0.331611,-0.13406 0.162278,0 0.268112,0.0917 0.105833,0.0988 0.105833,0.23989 0,0.22578 -0.204611,0.28928 0.105833,0.15522 0.402167,0.15522 0.373945,0 0.670278,-0.28222 0.303389,-0.27517 0.303389,-0.62089 0,-0.17639 -0.1905,-0.65616 l -0.776112,-1.96145 q 0,0 -0.08467,-0.22578 -0.119945,-0.3175 -0.275167,-0.3175 -0.04233,0 -0.155222,0.0212 -0.105834,0.0212 -0.141112,0.0212 -0.246944,0 -0.246944,-0.22577 0,-0.23989 0.324555,-0.23989 0.105834,0 0.162278,0.007 l 0.282223,0.0353 q 0.0071,0 0.05644,0 0.04939,0.007 0.08467,0.007 0.254,0 0.543278,-0.0282 0.218722,-0.0212 0.289278,-0.0212 0.296334,0 0.296334,0.23283 0,0.23283 -0.268112,0.23283 -0.04233,0 -0.134055,-0.0141 -0.09172,-0.0212 -0.134056,-0.0212 -0.09878,0 -0.09878,0.0988 0,0.0564 0.02822,0.14112 z"
         style="font-style:normal;font-variant:normal;font-weight:normal;font-stretch:normal;font-size:7.05556px;font-family:'American Typewriter';-inkscape-font-specification:'American Typewriter, Normal';font-variant-ligatures:normal;font-variant-caps:normal;font-variant-numeric:normal;font-variant-east-asian:normal;fill:#333333;stroke-width:0.264583"
         id="path129" />
      <path
         d="m 57.866133,122.1649 q 0.472723,0 0.790223,0.24694 v -0.0282 q 0,-0.26106 0.225778,-0.26106 0.232834,0 0.232834,0.22578 0,0.0423 -0.01411,0.21167 -0.02822,0.14111 -0.02822,0.28222 0,0.0847 0.02117,0.24695 0.02822,0.16227 0.02822,0.24694 0,0.26811 -0.232833,0.26811 -0.225778,0 -0.232834,-0.22578 l -0.0071,-0.23283 q -0.0071,-0.21167 -0.246945,-0.35983 -0.232833,-0.15523 -0.550334,-0.15523 -0.324555,0 -0.543278,0.16934 -0.218722,0.16228 -0.218722,0.40922 0,0.45156 0.620889,0.53622 l 0.409223,0.0564 q 1.199445,0.16228 1.199445,0.99483 0,0.508 -0.388056,0.8255 -0.388056,0.31045 -1.016001,0.31045 -0.585611,0 -1.016,-0.33161 0.0071,0.0705 0.0071,0.13405 0,0.254 -0.239889,0.254 -0.261055,0 -0.261055,-0.28928 0,0.0494 0.04233,-0.36689 0.01411,-0.0988 0.01411,-0.19755 0,-0.16934 -0.02822,-0.3175 -0.02822,-0.14817 -0.02822,-0.23284 0,-0.24694 0.225777,-0.24694 0.148167,0 0.183445,0.0706 0.04233,0.0705 0.04939,0.37394 0.0071,0.30339 0.3175,0.49389 0.310445,0.1905 0.790223,0.1905 0.345722,0 0.5715,-0.17639 0.225778,-0.17639 0.225778,-0.4445 0,-0.47978 -0.762,-0.55739 -0.726723,-0.0776 -1.107723,-0.28222 -0.381001,-0.21167 -0.381001,-0.73378 0,-0.49389 0.373945,-0.79728 0.373945,-0.31044 0.973667,-0.31044 z"
         style="font-style:normal;font-variant:normal;font-weight:normal;font-stretch:normal;font-size:7.05556px;font-family:'American Typewriter';-inkscape-font-specification:'American Typewriter, Normal';font-variant-ligatures:normal;font-variant-caps:normal;font-variant-numeric:normal;font-variant-east-asian:normal;fill:#333333;stroke-width:0.264583"
         id="path131" />
    </g>
  </g>
  <g
     inkscape:groupmode="layer"
     id="layer2"
     inkscape:label="components"
     style="display:none">
    <circle
       style="display:inline;fill:#0000ff;stroke-width:0.160128"
       id="path47-3"
       cx="7.3825011"
       cy="110.93007"
       r="5"
       inkscape:label="RESET" />
    <circle
       style="display:inline;fill:#0000ff;stroke-width:0.160128"
       id="path47-8"
       cx="20.028332"
       cy="110.5521"
       r="5"
       inkscape:label="RUN" />
    <circle
       style="display:inline;fill:#0000ff;stroke-width:0.160128"
       id="path47-6"
       cx="32.599693"
       cy="110.7147"
       r="5"
       inkscape:label="BPM" />
    <rect
       style="display:inline;opacity:1;fill:#ffff00;stroke-width:0.264583"
       id="rect955-2"
       width="34.395832"
       height="15.875"
       x="3.1220856"
       y="72.1875"
       inkscape:label="BPM_DISPLAY" />
    <rect
       style="display:inline;opacity:1;fill:#ffff00;stroke-width:0.264583"
       id="rect955"
       width="34.395832"
       height="15.875"
       x="3.1220844"
       y="21.916668"
       inkscape:label="MIDI_DISPLAY" />
    <path
       id="rect957"
       style="display:inline;opacity:1;fill:#ffff00;stroke-width:0.186656"
       d="m 3.1220839,44.406251 v 15 H 17.929259 v -15 z"
       inkscape:label="STOP" />
    <path
       id="rect957-0"
       style="display:inline;opacity:1;fill:#ffff00;stroke-width:0.186656"
       d="m 22.710742,44.406251 v 15 h 14.807176 v -15 z"
       inkscape:label="PLAY" />
    <circle
       style="display:inline;fill:#ff00ff;stroke-width:0.264583"
       id="path932"
       cx="7.3825011"
       cy="96"
       r="1.3229166"
       inkscape:label="RESET" />
    <circle
       style="display:inline;fill:#ff00ff;stroke-width:0.264583"
       id="path932-8"
       cx="20.028332"
       cy="96"
       r="1.3229166"
       inkscape:label="RUN" />
    <circle
       style="display:inline;fill:#ff00ff;stroke-width:0.264583"
       id="path932-6"
       cx="32.599693"
       cy="96"
       r="1.3229166"
       inkscape:label="BPM" />
  </g>
</svg>
