<?xml version="1.0" encoding="UTF-8" standalone="no"?>
<svg
   xmlns:dc="http://purl.org/dc/elements/1.1/"
   xmlns:cc="http://creativecommons.org/ns#"
   xmlns:rdf="http://www.w3.org/1999/02/22-rdf-syntax-ns#"
   xmlns:svg="http://www.w3.org/2000/svg"
   xmlns="http://www.w3.org/2000/svg"
   xmlns:sodipodi="http://sodipodi.sourceforge.net/DTD/sodipodi-0.dtd"
   xmlns:inkscape="http://www.inkscape.org/namespaces/inkscape"
   width="101.6mm"
   height="128.5mm"
   viewBox="0 0 101.6 128.5"
   version="1.1"
   id="svg72"
   inkscape:version="1.0.1 (3bc2e813f5, 2020-09-07)"
   sodipodi:docname="styleguide.svg">
  <defs
     id="defs66" />
  <sodipodi:namedview
     id="base"
     pagecolor="#ffffff"
     bordercolor="#666666"
     borderopacity="1.0"
     inkscape:pageopacity="0.0"
     inkscape:pageshadow="2"
     inkscape:zoom="1.979899"
     inkscape:cx="144.43141"
     inkscape:cy="141.29177"
     inkscape:document-units="mm"
     inkscape:current-layer="layer4"
     inkscape:document-rotation="0"
     showgrid="true"
     inkscape:showpageshadow="false"
     borderlayer="true"
     inkscape:lockguides="false"
     inkscape:window-width="1918"
     inkscape:window-height="2054"
     inkscape:window-x="-10"
     inkscape:window-y="0"
     inkscape:window-maximized="0">
    <inkscape:grid
       type="xygrid"
       id="grid74"
       originx="50.799999"
       originy="64.250001"
       dotted="true" />
    <sodipodi:guide
       position="0,128.5"
       orientation="0,383.99999"
       id="guide76"
       inkscape:locked="false" />
    <sodipodi:guide
       position="101.6,128.5"
       orientation="485.66929,0"
       id="guide78"
       inkscape:locked="false" />
    <sodipodi:guide
       position="101.6,0"
       orientation="0,-383.99999"
       id="guide80"
       inkscape:locked="false" />
    <sodipodi:guide
       position="0,0"
       orientation="-485.66929,0"
       id="guide82"
       inkscape:locked="false" />
  </sodipodi:namedview>
  <metadata
     id="metadata69">
    <rdf:RDF>
      <cc:Work
         rdf:about="">
        <dc:format>image/svg+xml</dc:format>
        <dc:type
           rdf:resource="http://purl.org/dc/dcmitype/StillImage" />
        <dc:title />
      </cc:Work>
    </rdf:RDF>
  </metadata>
  <g
     inkscape:label="Layer 1"
     inkscape:groupmode="layer"
     id="layer1">
    <rect
       style="fill:#cccccc;fill-rule:evenodd;stroke-width:0.266141"
       id="rect84"
       width="101.6"
       height="128.5"
       x="-1.503982e-14"
       y="-7.5495166e-15" />
  </g>
  <g
     inkscape:groupmode="layer"
     id="layer3"
     inkscape:label="Original"
     style="display:none;opacity:1">
    <text
       xml:space="preserve"
       style="font-style:normal;font-variant:normal;font-weight:normal;font-stretch:normal;font-size:7.05556px;line-height:1.25;font-family:'American Typewriter';-inkscape-font-specification:'American Typewriter, Normal';font-variant-ligatures:normal;font-variant-caps:normal;font-variant-numeric:normal;font-variant-east-asian:normal;display:inline;opacity:1;fill:#000000;fill-opacity:1;stroke:none;stroke-width:0.264583"
       x="4.5625944"
       y="-24.238361"
       id="text25-1"><tspan
         sodipodi:role="line"
         id="tspan23-3"
         x="4.5625944"
         y="-24.238361"
         style="font-style:normal;font-variant:normal;font-weight:normal;font-stretch:normal;font-size:7.05556px;font-family:'American Typewriter';-inkscape-font-specification:'American Typewriter, Normal';font-variant-ligatures:normal;font-variant-caps:normal;font-variant-numeric:normal;font-variant-east-asian:normal;fill:#000000;stroke-width:0.264583">Ynys</tspan></text>
    <text
       xml:space="preserve"
       style="font-style:normal;font-variant:normal;font-weight:normal;font-stretch:normal;font-size:7.05556px;line-height:1.25;font-family:'American Typewriter';-inkscape-font-specification:'American Typewriter, Normal';font-variant-ligatures:normal;font-variant-caps:normal;font-variant-numeric:normal;font-variant-east-asian:normal;display:inline;opacity:1;fill:#000000;fill-opacity:1;stroke:none;stroke-width:0.264583"
       x="4.1867194"
       y="-32.683525"
       id="text29-7"><tspan
         sodipodi:role="line"
         id="tspan27-5"
         x="4.1867194"
         y="-32.683525"
         style="font-style:normal;font-variant:normal;font-weight:normal;font-stretch:normal;font-size:7.05556px;font-family:'American Typewriter';-inkscape-font-specification:'American Typewriter, Normal';font-variant-ligatures:normal;font-variant-caps:normal;font-variant-numeric:normal;font-variant-east-asian:normal;stroke-width:0.264583">Style Guide</tspan></text>
  </g>
  <g
     inkscape:groupmode="layer"
     id="layer4"
     inkscape:label="To Render"
     style="display:inline">
    <g
       aria-label="Style Guide"
       id="text29"
       style="font-style:normal;font-variant:normal;font-weight:normal;font-stretch:normal;font-size:7.05556px;line-height:1.25;font-family:'American Typewriter';-inkscape-font-specification:'American Typewriter, Normal';font-variant-ligatures:normal;font-variant-caps:normal;font-variant-numeric:normal;font-variant-east-asian:normal;display:inline;opacity:1;fill:#000000;fill-opacity:1;stroke:none;stroke-width:0.264583">
      <path
         d="m 32.490117,4.3876205 q 0.691445,0 1.12889,0.4445002 v -0.098778 q 0,-0.2751668 0.218722,-0.2751668 0.239889,0 0.239889,0.303389 v 0.042333 q 0,0.014111 -0.02117,0.2116668 -0.02117,0.1975557 -0.02117,0.4727225 0,0.035278 0.01411,0.225778 l 0.02117,0.2822224 q 0.0071,0.035278 0.0071,0.098778 0,0.3386669 -0.261055,0.3386669 -0.275167,0 -0.275167,-0.2822224 0,-0.035278 0,-0.035278 l 0.01411,-0.1905001 q 0.0071,-0.098778 0.0071,-0.1552224 0,-0.4233336 -0.289278,-0.6632226 -0.282223,-0.2398891 -0.783168,-0.2398891 -0.458611,0 -0.733778,0.225778 -0.268111,0.2257779 -0.268111,0.6067781 0,0.4445003 0.402167,0.6561671 0.225778,0.112889 0.790223,0.2046113 0.839611,0.1340556 1.150056,0.3668891 0.465667,0.3457224 0.465667,0.9807228 0,0.6632227 -0.479778,1.0795007 -0.472723,0.4162781 -1.227668,0.4162781 -0.804334,0 -1.333501,-0.5080003 0,0.028222 0.0071,0.0635 0,0.035278 0,0.042333 0.01411,0.1128889 0.01411,0.1481667 0,0.2610557 -0.246945,0.2610557 -0.268111,0 -0.268111,-0.2963335 0,-0.035278 0.0071,-0.056444 l 0.02822,-0.3668891 q 0.02117,-0.2751668 0.02117,-0.352778 0,-0.1411112 -0.03528,-0.4233336 -0.03528,-0.2822224 -0.03528,-0.4233336 0,-0.3175002 0.268111,-0.3175002 0.275167,0 0.275167,0.3175002 V 7.619067 q -0.0071,0.056444 -0.0071,0.1622779 0,0.529167 0.338667,0.8396116 0.338666,0.3104447 0.917222,0.3104447 0.536223,0 0.853723,-0.2540002 0.3175,-0.2540002 0.3175,-0.6914449 0,-0.6702782 -0.846667,-0.818445 L 32.461895,7.0969555 Q 31.862173,6.9911221 31.530561,6.8500109 31.227172,6.7159553 31.043728,6.4337329 30.867339,6.1444549 30.867339,5.7846214 q 0,-0.6208893 0.451555,-1.0089451 0.451556,-0.3880558 1.171223,-0.3880558 z"
         style="font-style:normal;font-variant:normal;font-weight:normal;font-stretch:normal;font-size:7.05556px;font-family:'American Typewriter';-inkscape-font-specification:'American Typewriter, Normal';font-variant-ligatures:normal;font-variant-caps:normal;font-variant-numeric:normal;font-variant-east-asian:normal;stroke-width:0.264583"
         id="path104" />
      <path
         d="m 36.82222,8.2752341 0.01411,-0.4515559 q 0.0071,-0.2892779 0.254,-0.2892779 0.246945,0 0.246945,0.3245557 0,0.7690561 -0.197556,1.0724452 -0.268111,0.4092224 -0.881945,0.4092224 -0.564444,0 -0.804333,-0.3598335 Q 35.277053,8.7197344 35.277053,8.0917895 V 6.3984551 q 0,-0.1481668 -0.134056,-0.1481668 h -0.225778 q -0.112889,0 -0.1905,-0.070556 -0.07056,-0.077611 -0.07056,-0.1834445 0,-0.098778 0.07056,-0.176389 0.07761,-0.077611 0.169333,-0.077611 h 0.275167 q 0.119945,0 0.119945,-0.1340557 V 4.8815097 q 0,-0.2681113 0.275167,-0.2681113 0.254,0 0.254,0.2681113 v 0.7549449 q 0,0.1058334 0.127,0.1058334 h 0.769056 q 0.268111,0 0.268111,0.2469446 0,0.2610557 -0.289278,0.2610557 h -0.776111 q -0.09878,0 -0.09878,0.1481668 v 1.7356678 q 0,0.7408338 0.486833,0.7408338 0.49389,0 0.515056,-0.5997226 z"
         style="font-style:normal;font-variant:normal;font-weight:normal;font-stretch:normal;font-size:7.05556px;font-family:'American Typewriter';-inkscape-font-specification:'American Typewriter, Normal';font-variant-ligatures:normal;font-variant-caps:normal;font-variant-numeric:normal;font-variant-east-asian:normal;stroke-width:0.264583"
         id="path106" />
      <path
         d="m 38.811885,6.3984551 0.81139,2.3847793 0.860778,-2.3495015 q 0.03528,-0.098778 0.03528,-0.1552223 0,-0.1199446 -0.162278,-0.1199446 -0.08467,0 -0.134056,0.014111 -0.112889,0.014111 -0.148166,0.014111 -0.232834,0 -0.232834,-0.2257779 0,-0.2398891 0.303389,-0.2398891 0.04233,0 0.141111,0.014111 l 0.254001,0.035278 q 0.09878,0.014111 0.211666,0.014111 0.119945,0 0.352778,-0.028222 0.232834,-0.028222 0.352778,-0.028222 0.30339,0 0.30339,0.2328335 0,0.2257779 -0.232834,0.2257779 -0.07056,0 -0.105833,-0.014111 -0.09172,-0.021167 -0.127,-0.021167 -0.134056,0 -0.275167,0.3598335 L 40.06072,8.9102345 q -0.317501,0.7972783 -0.599723,1.1571115 -0.479778,0.613834 -1.199445,0.613834 -0.430389,0 -0.726723,-0.218722 -0.289278,-0.218723 -0.289278,-0.5291673 0,-0.2187224 0.127,-0.3598336 0.127,-0.1340556 0.331611,-0.1340556 0.162278,0 0.268112,0.091722 0.105833,0.098778 0.105833,0.239889 0,0.2257779 -0.204611,0.2892782 0.105833,0.155222 0.402167,0.155222 0.373945,0 0.670278,-0.2822223 0.303389,-0.2751668 0.303389,-0.6208893 0,-0.176389 -0.1905,-0.6561671 L 38.282718,6.6947886 q 0,0 -0.08467,-0.2257779 -0.119945,-0.3175002 -0.275167,-0.3175002 -0.04233,0 -0.155223,0.021167 -0.105833,0.021167 -0.141111,0.021167 -0.246944,0 -0.246944,-0.2257779 0,-0.239889 0.324555,-0.239889 0.105834,0 0.162278,0.00706 l 0.282223,0.035278 q 0.0071,0 0.05644,0 0.04939,0.00706 0.08467,0.00706 0.254,0 0.543278,-0.028222 0.218722,-0.021167 0.289278,-0.021167 0.296334,0 0.296334,0.2328335 0,0.2328334 -0.268112,0.2328334 -0.04233,0 -0.134055,-0.014111 -0.09172,-0.021167 -0.134056,-0.021167 -0.09878,0 -0.09878,0.098778 0,0.056444 0.02822,0.1411112 z"
         style="font-style:normal;font-variant:normal;font-weight:normal;font-stretch:normal;font-size:7.05556px;font-family:'American Typewriter';-inkscape-font-specification:'American Typewriter, Normal';font-variant-ligatures:normal;font-variant-caps:normal;font-variant-numeric:normal;font-variant-east-asian:normal;stroke-width:0.264583"
         id="path108" />
      <path
         d="m 43.04522,6.2996772 0.0071,2.1942792 q 0.0071,0.3598336 0.1905,0.3598336 0.04233,0 0.176389,-0.035278 0.08467,-0.014111 0.112889,-0.014111 0.232833,0 0.232833,0.239889 0,0.2328335 -0.289278,0.2328335 -0.112889,0 -0.359833,-0.028222 -0.246945,-0.028222 -0.381001,-0.028222 -0.112888,0 -0.338666,0.028222 -0.225778,0.028222 -0.331612,0.028222 h -0.03528 q -0.296333,0 -0.296333,-0.2540002 0,-0.2187223 0.239889,-0.2187223 0.01411,0 0.04939,0 0.04233,0.00706 0.0635,0.00706 0.176389,0.028222 0.204611,0.028222 0.127,0 0.155223,-0.1058334 0.03528,-0.112889 0.04233,-0.5715004 l 0.0071,-0.4938892 0.02117,-1.0936118 -0.0071,-1.2558897 q -0.0071,-0.2116668 -0.02117,-0.2822224 -0.04939,-0.1622779 -0.197556,-0.1622779 -0.02117,0 -0.183444,0.028222 -0.07761,0.014111 -0.127,0.014111 -0.239889,0 -0.239889,-0.225778 0,-0.2328334 0.282222,-0.2328334 0.07761,0 0.134056,0.00706 l 0.169333,0.021167 q 0.112889,0.014111 0.1905,0.014111 0.07056,0 0.211667,-0.021167 0.141111,-0.028222 0.211667,-0.028222 0.162278,0 0.162278,0.2046112 0,0.070556 -0.0071,0.1058334 -0.04939,0.5432782 -0.04939,1.5381121 z"
         style="font-style:normal;font-variant:normal;font-weight:normal;font-stretch:normal;font-size:7.05556px;font-family:'American Typewriter';-inkscape-font-specification:'American Typewriter, Normal';font-variant-ligatures:normal;font-variant-caps:normal;font-variant-numeric:normal;font-variant-east-asian:normal;stroke-width:0.264583"
         id="path110" />
      <path
         d="m 47.327932,7.1745667 q 0,0.2681113 -0.03528,0.3316113 -0.03528,0.056444 -0.204611,0.056444 h -2.243668 q -0.09172,0 -0.119945,0.028222 -0.02822,0.021167 -0.02822,0.077611 0,0.529167 0.3175,0.881945 0.3175,0.352778 0.790223,0.352778 0.310445,0 0.564445,-0.1693334 0.261055,-0.1693335 0.338667,-0.4303892 l 0.0635,-0.2046112 q 0.04939,-0.1693335 0.232833,-0.1693335 0.261056,0 0.261056,0.2681113 0,0.4586114 -0.465667,0.818445 -0.465667,0.352778 -1.058334,0.352778 -0.740834,0 -1.178279,-0.4938892 -0.437444,-0.5009448 -0.437444,-1.3405564 0,-0.8607784 0.465667,-1.3970009 0.465666,-0.5362226 1.213556,-0.5362226 0.663223,0 1.093612,0.4445003 0.430389,0.4445003 0.430389,1.1288896 z M 44.766764,6.9911221 q 0,0.098778 0.155222,0.098778 h 1.686279 q 0.148166,0 0.148166,-0.098778 0,-0.3739447 -0.282222,-0.6491115 -0.282222,-0.2751668 -0.663223,-0.2751668 -0.395111,0 -0.719667,0.2892779 -0.324555,0.2822224 -0.324555,0.6350004 z"
         style="font-style:normal;font-variant:normal;font-weight:normal;font-stretch:normal;font-size:7.05556px;font-family:'American Typewriter';-inkscape-font-specification:'American Typewriter, Normal';font-variant-ligatures:normal;font-variant-caps:normal;font-variant-numeric:normal;font-variant-east-asian:normal;stroke-width:0.264583"
         id="path112" />
      <path
         d="m 51.702365,4.3876205 q 0.705556,0 1.277057,0.529167 -0.01411,-0.098778 -0.01411,-0.112889 -0.01411,-0.1411112 -0.01411,-0.1552223 0,-0.2328335 0.232833,-0.2328335 0.254,0 0.254,0.3033891 0,0.098778 -0.0071,0.1481667 l -0.04939,0.3386669 q -0.02117,0.1481668 -0.02117,0.3175002 0,0.1340557 0.02822,0.5715004 0,0 0,0.0635 0,0.3175002 -0.261055,0.3175002 -0.246945,0 -0.246945,-0.3457224 V 5.918677 q 0,-0.4868337 -0.324556,-0.7690561 -0.3175,-0.2822224 -0.860778,-0.2822224 -0.68439,0 -1.072445,0.529167 -0.388056,0.5291671 -0.388056,1.4534454 0,0.9807229 0.395111,1.5310566 0.402167,0.5503337 1.107723,0.5503337 0.543278,0 0.839612,-0.3175002 0.296333,-0.3175002 0.296333,-0.9031117 0,-0.2398891 -0.08467,-0.3316114 -0.07761,-0.098778 -0.282223,-0.098778 -0.05644,0 -0.162278,0.00706 -0.105833,0.00706 -0.162278,0.00706 -0.338666,0 -0.338666,-0.239889 0,-0.2469446 0.289278,-0.2469446 0.09172,0 0.204611,0.014111 0.4445,0.056445 0.712611,0.056445 0.345723,0 0.733779,-0.0635 0.08467,-0.014111 0.1905,-0.014111 0.282222,0 0.282222,0.2328335 0,0.098778 -0.07761,0.1693334 -0.07056,0.070556 -0.169333,0.070556 -0.08467,0 -0.127001,-0.00706 -0.01411,0 -0.04939,-0.00706 -0.03528,0 -0.05645,0 -0.310445,0 -0.310445,0.6914449 v 0.5644448 q 0,0.1834446 0.01411,0.3316113 0.01411,0.1481668 0.01411,0.2328335 0,0.289278 -0.254001,0.289278 -0.246944,0 -0.246944,-0.2469446 0,0 0.01411,-0.1693335 0.0071,-0.0635 0.01411,-0.2187223 -0.162278,0.2187223 -0.254,0.3033891 -0.409223,0.3668891 -1.135945,0.3668891 -0.910167,0 -1.467557,-0.6773338 -0.557389,-0.6773338 -0.557389,-1.7709456 0,-1.1712229 0.564445,-1.8697234 0.5715,-0.6985004 1.531056,-0.6985004 z"
         style="font-style:normal;font-variant:normal;font-weight:normal;font-stretch:normal;font-size:7.05556px;font-family:'American Typewriter';-inkscape-font-specification:'American Typewriter, Normal';font-variant-ligatures:normal;font-variant-caps:normal;font-variant-numeric:normal;font-variant-east-asian:normal;stroke-width:0.264583"
         id="path114" />
      <path
         d="M 57.502029,9.0725124 V 8.85379 q -0.373944,0.5150559 -1.107722,0.5150559 -0.832557,0 -1.157112,-0.5150559 -0.141112,-0.2257779 -0.155223,-0.529167 -0.0071,-0.1481668 -0.0071,-0.6208893 V 7.1181222 q 0,-0.9666117 -0.204611,-0.9666117 -0.04233,0 -0.134056,0.021167 -0.09172,0.014111 -0.141111,0.014111 -0.246945,0 -0.246945,-0.2328335 0,-0.2257779 0.303389,-0.2257779 0.07056,0 0.204611,0.014111 0.141112,0.014111 0.211667,0.014111 0.0635,0 0.218723,-0.021167 0.105833,-0.014111 0.119944,-0.014111 0.218723,0 0.218723,0.2681113 v 0.1481668 l -0.0071,0.4586114 -0.02117,0.5221114 v 0.4586114 q 0,0.6138338 0.09878,0.881945 0.162278,0.4445003 0.776112,0.4445003 0.303389,0 0.536222,-0.1340556 0.232834,-0.1411112 0.324556,-0.3668891 0.112889,-0.2751669 0.112889,-1.0442229 V 6.9699555 q 0,-0.4233337 0,-0.4586115 -0.03528,-0.3386668 -0.183445,-0.3386668 -0.07761,0 -0.127,0.014111 h -0.08467 q -0.246945,0 -0.246945,-0.2187224 0,-0.2469446 0.275167,-0.2469446 0.0635,0 0.1905,0.014111 0.134056,0.014111 0.197556,0.014111 0.05644,0 0.169333,-0.00706 0.112889,-0.014111 0.169334,-0.014111 0.211666,0 0.211666,0.2257779 0,0.098778 -0.01411,0.1552223 -0.03528,0.2681113 -0.03528,0.7902227 v 1.0865563 q 0,0.4303892 0.0071,0.4797781 0.03528,0.3739447 0.197556,0.3739447 0.04939,0 0.141111,-0.014111 0.09172,-0.021167 0.141111,-0.021167 0.239889,0 0.239889,0.2328335 0,0.239889 -0.296333,0.239889 -0.0635,0 -0.183445,-0.014111 -0.176389,-0.021167 -0.218722,-0.021167 -0.02117,0 -0.148167,0.014111 -0.08467,0.021167 -0.148167,0.021167 -0.197556,0 -0.197556,-0.2046112 z"
         style="font-style:normal;font-variant:normal;font-weight:normal;font-stretch:normal;font-size:7.05556px;font-family:'American Typewriter';-inkscape-font-specification:'American Typewriter, Normal';font-variant-ligatures:normal;font-variant-caps:normal;font-variant-numeric:normal;font-variant-east-asian:normal;stroke-width:0.264583"
         id="path116" />
      <path
         d="m 60.133749,7.2027889 v 0.9172228 q 0,0.3527781 0.0071,0.4162781 0.03528,0.3175002 0.1905,0.3175002 0.03528,0 0.176389,-0.035278 0.03528,-0.014111 0.105834,-0.014111 0.268111,0 0.268111,0.2328335 0,0.098778 -0.09172,0.1693334 -0.08467,0.070556 -0.218723,0.070556 -0.112889,0 -0.345722,-0.028222 -0.225778,-0.035278 -0.338667,-0.035278 -0.183445,0 -0.409223,0.028222 -0.275166,0.035278 -0.366889,0.035278 -0.282222,0 -0.282222,-0.239889 0,-0.2328335 0.239889,-0.2328335 0.05644,0 0.162278,0.021167 0.112889,0.021167 0.169333,0.021167 0.169334,0 0.204611,-0.4515558 0,-0.028222 0,-0.6138337 v -0.578556 q 0,-0.5856115 0,-0.6138337 -0.03528,-0.4445003 -0.211666,-0.4445003 -0.05644,0 -0.162278,0.028222 -0.09878,0.021167 -0.148167,0.021167 -0.254,0 -0.254,-0.2257779 0,-0.239889 0.310445,-0.239889 0.134055,0 0.1905,0.00706 0.225778,0.028222 0.289278,0.028222 0.05644,0 0.169333,-0.014111 0.119945,-0.021167 0.176389,-0.021167 0.204611,0 0.204611,0.2751668 0,0.028222 -0.0071,0.084667 -0.0071,0.056445 -0.0071,0.084667 -0.0071,0.056444 -0.01411,0.4374447 -0.0071,0.2892779 -0.0071,0.592667 z M 59.76686,5.3542322 q -0.162278,0 -0.282222,-0.112889 -0.112889,-0.1199445 -0.112889,-0.2822224 0,-0.1622779 0.112889,-0.2751668 0.119944,-0.112889 0.282222,-0.112889 0.162278,0 0.275167,0.112889 0.119945,0.1128889 0.119945,0.2751668 0,0.1622779 -0.119945,0.2822224 -0.112889,0.112889 -0.275167,0.112889 z"
         style="font-style:normal;font-variant:normal;font-weight:normal;font-stretch:normal;font-size:7.05556px;font-family:'American Typewriter';-inkscape-font-specification:'American Typewriter, Normal';font-variant-ligatures:normal;font-variant-caps:normal;font-variant-numeric:normal;font-variant-east-asian:normal;stroke-width:0.264583"
         id="path118" />
      <path
         d="m 62.758414,5.6011768 q 0.6985,0 1.044223,0.5432781 V 5.4318433 q 0,-0.2822224 -0.01411,-0.3457224 -0.03528,-0.2187224 -0.197556,-0.2187224 -0.05644,0 -0.162278,0.021167 -0.09878,0.021167 -0.155222,0.021167 -0.261056,0 -0.261056,-0.2257779 0,-0.2328335 0.352778,-0.2328335 0.05644,0 0.204611,0.014111 0.225778,0.021167 0.232834,0.021167 0.0635,0 0.183444,-0.014111 0.119945,-0.014111 0.183445,-0.014111 0.197556,0 0.197556,0.2822224 v 0.077611 q -0.0071,0.021167 -0.01411,0.3739447 0,0.042333 -0.02117,0.5432781 -0.01411,0.352778 -0.01411,0.5362226 v 0.6914449 l 0.01411,1.1782785 q 0.0071,0.465667 0.04233,0.578556 0.03528,0.1128889 0.169334,0.1128889 0.09172,0 0.141111,-0.014111 0.112889,-0.014111 0.155222,-0.014111 0.261056,0 0.261056,0.2328335 0,0.239889 -0.3175,0.239889 -0.07056,0 -0.218723,-0.021167 -0.141111,-0.014111 -0.211667,-0.014111 -0.02117,0 -0.162277,0.014111 -0.08467,0.021167 -0.148167,0.021167 -0.1905,0 -0.1905,-0.2540002 v -0.035278 l 0.0071,-0.1199445 q -0.373944,0.5009448 -1.086556,0.5009448 -0.719667,0 -1.157112,-0.5221115 -0.437445,-0.5221114 -0.437445,-1.3687786 0,-0.8537228 0.43039,-1.3617231 0.430389,-0.5150559 1.150056,-0.5150559 z m 1.001889,2.4906127 q 0.02822,-0.2328335 0.02822,-0.5997226 0,-0.4727225 -0.03528,-0.642056 -0.0635,-0.352778 -0.303389,-0.5503337 -0.282223,-0.2328334 -0.649112,-0.2328334 -0.493889,0 -0.776111,0.3739446 -0.275167,0.3739447 -0.275167,1.0230563 0,0.6702782 0.289278,1.058334 0.289278,0.3810002 0.790222,0.3810002 0.381001,0 0.635001,-0.2187223 0.254,-0.225778 0.296333,-0.5926671 z"
         style="font-style:normal;font-variant:normal;font-weight:normal;font-stretch:normal;font-size:7.05556px;font-family:'American Typewriter';-inkscape-font-specification:'American Typewriter, Normal';font-variant-ligatures:normal;font-variant-caps:normal;font-variant-numeric:normal;font-variant-east-asian:normal;stroke-width:0.264583"
         id="path120" />
      <path
         d="m 68.614517,7.1745667 q 0,0.2681113 -0.03528,0.3316113 -0.03528,0.056444 -0.204611,0.056444 H 66.13096 q -0.09172,0 -0.119945,0.028222 -0.02822,0.021167 -0.02822,0.077611 0,0.529167 0.3175,0.881945 0.3175,0.352778 0.790223,0.352778 0.310444,0 0.564445,-0.1693334 0.261055,-0.1693335 0.338666,-0.4303892 l 0.0635,-0.2046112 q 0.04939,-0.1693335 0.232834,-0.1693335 0.261056,0 0.261056,0.2681113 0,0.4586114 -0.465667,0.818445 -0.465667,0.352778 -1.058334,0.352778 -0.740834,0 -1.178279,-0.4938892 -0.437445,-0.5009448 -0.437445,-1.3405564 0,-0.8607784 0.465667,-1.3970009 0.465667,-0.5362226 1.213557,-0.5362226 0.663222,0 1.093612,0.4445003 0.430389,0.4445003 0.430389,1.1288896 z M 66.053348,6.9911221 q 0,0.098778 0.155223,0.098778 h 1.686279 q 0.148166,0 0.148166,-0.098778 0,-0.3739447 -0.282222,-0.6491115 -0.282222,-0.2751668 -0.663223,-0.2751668 -0.395111,0 -0.719667,0.2892779 -0.324556,0.2822224 -0.324556,0.6350004 z"
         style="font-style:normal;font-variant:normal;font-weight:normal;font-stretch:normal;font-size:7.05556px;font-family:'American Typewriter';-inkscape-font-specification:'American Typewriter, Normal';font-variant-ligatures:normal;font-variant-caps:normal;font-variant-numeric:normal;font-variant-east-asian:normal;stroke-width:0.264583"
         id="path122" />
    </g>
    <g
       aria-label="Ynys"
       id="text25"
       style="font-style:normal;font-variant:normal;font-weight:normal;font-stretch:normal;font-size:7.05556px;line-height:1.25;font-family:'American Typewriter';-inkscape-font-specification:'American Typewriter, Normal';font-variant-ligatures:normal;font-variant-caps:normal;font-variant-numeric:normal;font-variant-east-asian:normal;display:inline;opacity:1;fill:#000000;fill-opacity:1;stroke:none;stroke-width:0.264583">
      <path
         d="m 44.672265,124.40857 q 0,-0.0282 0,-0.13406 -0.0071,-0.11289 -0.0071,-0.1905 l -1.368779,-2.16606 q -0.134055,-0.21166 -0.169333,-0.24694 -0.105833,-0.10584 -0.261056,-0.10584 -0.08467,0 -0.127,0.007 -0.02117,0 -0.0635,0 -0.04939,0.007 -0.07056,0.007 -0.324556,0 -0.324556,-0.24695 0,-0.254 0.282222,-0.254 0.112889,0 0.282223,0.0282 0.338666,0.0564 0.635,0.0564 0.218722,0 0.656167,-0.0635 0.148167,-0.0212 0.254,-0.0212 0.289278,0 0.289278,0.24695 0,0.23988 -0.345722,0.23988 l -0.07056,-0.007 h -0.176389 l -0.141111,-0.007 q -0.08467,-0.007 -0.08467,0.0564 0,0.0282 0.0071,0.0423 0.0071,0.007 0.03528,0.0564 l 1.0795,1.83444 1.093612,-1.83444 q 0.03528,-0.0564 0.03528,-0.11289 0,-0.0635 -0.09172,-0.0635 h -0.01411 l -0.127001,0.007 -0.183444,0.0212 q -0.119945,0.0141 -0.183445,0.0141 -0.289278,0 -0.289278,-0.24694 0,-0.24695 0.282223,-0.24695 0.105833,0 0.254,0.0212 0.395111,0.0564 0.684389,0.0564 0.303389,0 0.670278,-0.0564 0.141112,-0.0212 0.239889,-0.0212 0.268112,0 0.268112,0.24695 0,0.22577 -0.261056,0.22577 -0.105833,0 -0.162278,-0.0141 -0.112889,-0.0141 -0.155222,-0.0141 -0.183445,0 -0.296334,0.16933 l -0.105833,0.16228 -1.389945,2.18017 v 0.29633 q 0,0.71967 0.05644,0.89606 0.0635,0.17639 0.303389,0.17639 0.05645,0 0.169334,-0.0141 0.119944,-0.0212 0.176389,-0.0212 0.218722,0 0.218722,0.22578 0,0.254 -0.3175,0.254 -0.0071,0 -0.04233,0 -0.02822,-0.007 -0.04939,-0.007 l -0.388055,-0.0494 q -0.218723,-0.0282 -0.43039,-0.0282 -0.225777,0 -0.430389,0.0282 l -0.359833,0.0494 q -0.01411,0 -0.04233,0.007 -0.03528,0 -0.04939,0 -0.3175,0 -0.3175,-0.24694 0,-0.23284 0.225778,-0.23284 0.05644,0 0.162278,0.0212 0.112889,0.0141 0.169334,0.0141 0.296333,0 0.359833,-0.37395 0.0071,-0.0635 0.0071,-0.62088 z"
         style="font-style:normal;font-variant:normal;font-weight:normal;font-stretch:normal;font-size:7.05556px;font-family:'American Typewriter';-inkscape-font-specification:'American Typewriter, Normal';font-variant-ligatures:normal;font-variant-caps:normal;font-variant-numeric:normal;font-variant-east-asian:normal;fill:#000000;stroke-width:0.264583"
         id="path125" />
      <path
         d="m 48.870314,122.50356 v 0.19756 q 0.423334,-0.53622 1.12889,-0.53622 0.381,0 0.719667,0.19755 0.338667,0.1905 0.458611,0.47978 0.09878,0.23989 0.09878,0.62795 v 1.34055 q 0,0.30339 0.0071,0.35984 0.03528,0.23989 0.1905,0.23989 0.0635,0 0.162278,-0.0141 0.105833,-0.0212 0.148166,-0.0212 0.09172,0 0.155223,0.0635 0.07055,0.0635 0.07055,0.15522 0,0.10583 -0.08467,0.17639 -0.08467,0.0705 -0.204612,0.0705 -0.09878,0 -0.324555,-0.0282 -0.225778,-0.0282 -0.423334,-0.0282 -0.183445,0 -0.303389,0.0141 -0.352778,0.0423 -0.373945,0.0423 -0.282222,0 -0.282222,-0.24694 0,-0.21872 0.239889,-0.21872 0.05644,0 0.127,0.0141 0.134056,0.0282 0.169333,0.0282 0.169334,0 0.183445,-0.38806 l 0.01411,-0.35983 0.0071,-0.43039 v -0.53622 q 0,-0.37395 -0.03528,-0.51506 -0.0635,-0.26811 -0.275167,-0.41627 -0.232834,-0.16228 -0.529167,-0.16228 -0.564445,0 -0.81139,0.40216 -0.169333,0.27517 -0.169333,0.93839 v 0.93839 q 0,0.31045 0.04233,0.42334 0.04233,0.11289 0.155223,0.11289 0.05644,0 0.155222,-0.0282 0.09878,-0.0282 0.162278,-0.0282 0.218722,0 0.218722,0.23989 0,0.23283 -0.282222,0.23283 -0.05645,0 -0.366889,-0.0423 -0.155223,-0.0212 -0.345723,-0.0212 -0.148166,0 -0.395111,0.0282 -0.310445,0.0353 -0.352778,0.0353 -0.296334,0 -0.296334,-0.23988 0,-0.22578 0.225778,-0.22578 0.03528,0 0.127,0.0212 0.09878,0.0212 0.190501,0.0212 0.211666,0 0.218722,-0.40922 l 0.01411,-0.78317 v -0.85372 l -0.01411,-0.24695 q -0.01411,-0.23989 -0.0635,-0.32455 -0.04233,-0.0917 -0.155222,-0.0917 -0.04939,0 -0.148167,0.0212 -0.09172,0.0141 -0.141111,0.0141 -0.254001,0 -0.254001,-0.22577 0,-0.23284 0.317501,-0.23284 0.04233,0 0.07055,0.007 l 0.261056,0.0282 q 0.112889,0 0.197556,-0.0141 0.183444,-0.0141 0.1905,-0.0141 0.204611,0 0.204611,0.21166 z"
         style="font-style:normal;font-variant:normal;font-weight:normal;font-stretch:normal;font-size:7.05556px;font-family:'American Typewriter';-inkscape-font-specification:'American Typewriter, Normal';font-variant-ligatures:normal;font-variant-caps:normal;font-variant-numeric:normal;font-variant-east-asian:normal;fill:#000000;stroke-width:0.264583"
         id="path127" />
      <path
         d="m 53.244742,122.96218 0.81139,2.38478 0.860778,-2.34951 q 0.03528,-0.0988 0.03528,-0.15522 0,-0.11994 -0.162278,-0.11994 -0.08467,0 -0.134056,0.0141 -0.112889,0.0141 -0.148166,0.0141 -0.232834,0 -0.232834,-0.22578 0,-0.23989 0.303389,-0.23989 0.04233,0 0.141111,0.0141 l 0.254001,0.0353 q 0.09878,0.0141 0.211666,0.0141 0.119945,0 0.352778,-0.0282 0.232834,-0.0282 0.352778,-0.0282 0.30339,0 0.30339,0.23283 0,0.22578 -0.232834,0.22578 -0.07056,0 -0.105833,-0.0141 -0.09172,-0.0212 -0.127,-0.0212 -0.134056,0 -0.275167,0.35983 l -0.959556,2.3989 q -0.317501,0.79727 -0.599723,1.15711 -0.479778,0.61383 -1.199445,0.61383 -0.430389,0 -0.726723,-0.21872 -0.289278,-0.21872 -0.289278,-0.52917 0,-0.21872 0.127,-0.35983 0.127,-0.13406 0.331611,-0.13406 0.162278,0 0.268112,0.0917 0.105833,0.0988 0.105833,0.23989 0,0.22578 -0.204611,0.28928 0.105833,0.15522 0.402167,0.15522 0.373945,0 0.670278,-0.28222 0.303389,-0.27517 0.303389,-0.62089 0,-0.17639 -0.1905,-0.65616 l -0.776112,-1.96145 q 0,0 -0.08467,-0.22578 -0.119945,-0.3175 -0.275167,-0.3175 -0.04233,0 -0.155222,0.0212 -0.105834,0.0212 -0.141112,0.0212 -0.246944,0 -0.246944,-0.22577 0,-0.23989 0.324555,-0.23989 0.105834,0 0.162278,0.007 l 0.282223,0.0353 q 0.0071,0 0.05644,0 0.04939,0.007 0.08467,0.007 0.254,0 0.543278,-0.0282 0.218722,-0.0212 0.289278,-0.0212 0.296334,0 0.296334,0.23283 0,0.23283 -0.268112,0.23283 -0.04233,0 -0.134055,-0.0141 -0.09172,-0.0212 -0.134056,-0.0212 -0.09878,0 -0.09878,0.0988 0,0.0564 0.02822,0.14112 z"
         style="font-style:normal;font-variant:normal;font-weight:normal;font-stretch:normal;font-size:7.05556px;font-family:'American Typewriter';-inkscape-font-specification:'American Typewriter, Normal';font-variant-ligatures:normal;font-variant-caps:normal;font-variant-numeric:normal;font-variant-east-asian:normal;fill:#000000;stroke-width:0.264583"
         id="path129" />
      <path
         d="m 57.866133,122.1649 q 0.472723,0 0.790223,0.24694 v -0.0282 q 0,-0.26106 0.225778,-0.26106 0.232834,0 0.232834,0.22578 0,0.0423 -0.01411,0.21167 -0.02822,0.14111 -0.02822,0.28222 0,0.0847 0.02117,0.24695 0.02822,0.16227 0.02822,0.24694 0,0.26811 -0.232833,0.26811 -0.225778,0 -0.232834,-0.22578 l -0.0071,-0.23283 q -0.0071,-0.21167 -0.246945,-0.35983 -0.232833,-0.15523 -0.550334,-0.15523 -0.324555,0 -0.543278,0.16934 -0.218722,0.16228 -0.218722,0.40922 0,0.45156 0.620889,0.53622 l 0.409223,0.0564 q 1.199445,0.16228 1.199445,0.99483 0,0.508 -0.388056,0.8255 -0.388056,0.31045 -1.016001,0.31045 -0.585611,0 -1.016,-0.33161 0.0071,0.0705 0.0071,0.13405 0,0.254 -0.239889,0.254 -0.261055,0 -0.261055,-0.28928 0,0.0494 0.04233,-0.36689 0.01411,-0.0988 0.01411,-0.19755 0,-0.16934 -0.02822,-0.3175 -0.02822,-0.14817 -0.02822,-0.23284 0,-0.24694 0.225777,-0.24694 0.148167,0 0.183445,0.0706 0.04233,0.0705 0.04939,0.37394 0.0071,0.30339 0.3175,0.49389 0.310445,0.1905 0.790223,0.1905 0.345722,0 0.5715,-0.17639 0.225778,-0.17639 0.225778,-0.4445 0,-0.47978 -0.762,-0.55739 -0.726723,-0.0776 -1.107723,-0.28222 -0.381001,-0.21167 -0.381001,-0.73378 0,-0.49389 0.373945,-0.79728 0.373945,-0.31044 0.973667,-0.31044 z"
         style="font-style:normal;font-variant:normal;font-weight:normal;font-stretch:normal;font-size:7.05556px;font-family:'American Typewriter';-inkscape-font-specification:'American Typewriter, Normal';font-variant-ligatures:normal;font-variant-caps:normal;font-variant-numeric:normal;font-variant-east-asian:normal;fill:#000000;stroke-width:0.264583"
         id="path131" />
    </g>
  </g>
  <g
     inkscape:groupmode="layer"
     id="layer2"
     inkscape:label="components" />
</svg>
